<?xml version="1.0" encoding="UTF-8" standalone="no"?>
<!-- Created with Inkscape (http://www.inkscape.org/) -->

<svg
   width="48"
   height="48"
   viewBox="0 0 12.7 12.7"
   version="1.1"
   id="svg5"
   sodipodi:docname="weather-full.svg"
   inkscape:version="1.1.2 (0a00cf5339, 2022-02-04)"
   xmlns:inkscape="http://www.inkscape.org/namespaces/inkscape"
   xmlns:sodipodi="http://sodipodi.sourceforge.net/DTD/sodipodi-0.dtd"
   xmlns="http://www.w3.org/2000/svg"
   xmlns:svg="http://www.w3.org/2000/svg">
  <sodipodi:namedview
     id="namedview14"
     pagecolor="#ffffff"
     bordercolor="#666666"
     borderopacity="1.0"
     inkscape:pageshadow="2"
     inkscape:pageopacity="0.0"
     inkscape:pagecheckerboard="0"
     showgrid="false"
     inkscape:zoom="18.1875"
     inkscape:cx="24"
     inkscape:cy="24"
     inkscape:window-width="2560"
     inkscape:window-height="1376"
     inkscape:window-x="0"
     inkscape:window-y="27"
     inkscape:window-maximized="1"
     inkscape:current-layer="layer1" />
  <defs
     id="defs2" />
  <g
     id="layer1">
    <path
       id="rect1263"
       style="fill:#239550;fill-opacity:1;stroke-width:0.327347;stroke-miterlimit:4;stroke-dasharray:none"
       d="m 13.264699,9.9772553 a 7.9214787,4.921067 0 0 0 -0.09221,-0.09631 7.9214787,4.921067 0 0 0 -0.09555,-0.09516 7.9214787,4.921067 0 0 0 -0.0989,-0.09343 7.9214787,4.921067 0 0 0 -0.102251,-0.09227 7.9214787,4.921067 0 0 0 -0.105595,-0.09112 7.9214787,4.921067 0 0 0 -0.108961,-0.08881 7.9214787,4.921067 0 0 0 -0.112309,-0.08824 7.9214787,4.921067 0 0 0 -0.115105,-0.08593 7.9214787,4.921067 0 0 0 -0.118457,-0.0842 7.9214787,4.921067 0 0 0 -0.121807,-0.08304 7.9214787,4.921067 0 0 0 -0.1246,-0.08074 7.9214787,4.921067 0 0 0 -0.127396,-0.07901 7.9214787,4.921067 0 0 0 -0.13019,-0.07785 7.9214787,4.921067 0 0 0 -0.133543,-0.07555 7.9214787,4.921067 0 0 0 -0.135777,-0.07324 7.9214787,4.921067 0 0 0 -0.138573,-0.07209 7.9214787,4.921067 0 0 0 -0.141365,-0.0692 7.9214787,4.921067 0 0 0 -0.143601,-0.06805 7.9214787,4.921067 0 0 0 -0.145838,-0.06575 7.9214787,4.921067 0 0 0 -0.148629,-0.06344 7.9214787,4.921067 0 0 0 -0.150863,-0.06113 7.9214787,4.921067 0 0 0 -0.1531,-0.0594 7.9214787,4.921067 0 0 0 -0.154775,-0.05709 7.9214787,4.921067 0 0 0 -0.15757,-0.05479 7.9214787,4.921067 0 0 0 -0.159241,-0.05304 A 7.9214787,4.921067 0 0 0 9.8875714,8.0182082 7.9214787,4.921067 0 0 0 9.7249732,7.9697652 7.9214787,4.921067 0 0 0 9.56014,7.9242062 7.9214787,4.921067 0 0 0 9.3941892,7.8809535 7.9214787,4.921067 0 0 0 9.2260033,7.8394315 7.9214787,4.921067 0 0 0 9.0572589,7.8007925 7.9214787,4.921067 0 0 0 8.886279,7.7644605 7.9214787,4.921067 0 0 0 8.7147409,7.7304355 7.9214787,4.921067 0 0 0 8.541526,7.6992935 7.9214787,4.921067 0 0 0 8.3671939,7.6704585 7.9214787,4.921067 0 0 0 8.192303,7.6439305 a 7.9214787,4.921067 0 0 0 -0.1765671,-0.02422 7.9214787,4.921067 0 0 0 -0.1765672,-0.02134 7.9214787,4.921067 0 0 0 -0.1776849,-0.01903 7.9214787,4.921067 0 0 0 -0.1788021,-0.01672 7.9214787,4.921067 0 0 0 -0.1788022,-0.01384 7.9214787,4.921067 0 0 0 -0.1793608,-0.01153 7.9214787,4.921067 0 0 0 -0.1799197,-0.0092 7.9214787,4.921067 0 0 0 -0.1799198,-0.0063 7.9214787,4.921067 0 0 0 -0.1799197,-0.0035 7.9214787,4.921067 0 0 0 -0.1804786,-0.0017 7.9214787,4.921067 0 0 0 -0.5403179,0.01153 7.9214787,4.921067 0 0 0 -0.5380826,0.0346 7.9214787,4.921067 0 0 0 -0.533054,0.05709 7.9214787,4.921067 0 0 0 -0.5257906,0.07958 7.9214787,4.921067 0 0 0 -0.5157324,0.101499 7.9214787,4.921067 0 0 0 -0.5028812,0.1234137 7.9214787,4.921067 0 0 0 -0.4883536,0.144175 7.9214787,4.921067 0 0 0 -0.4715908,0.164936 7.9214787,4.921067 0 0 0 -0.452593,0.1839667 7.9214787,4.921067 0 0 0 -0.4308016,0.202998 7.9214787,4.921067 0 0 0 -0.40789255,0.220876 7.9214787,4.921067 0 0 0 -0.38218978,0.2376007 7.9214787,4.921067 0 0 0 -0.35536937,0.25317 7.9214787,4.921067 0 0 0 -0.32687278,0.2681657 7.9214787,4.921067 0 0 0 -0.29669992,0.280852 7.9214787,4.921067 0 0 0 -0.1178977,0.1303347 v 2.83563 c 0,0.701175 0.54655307,1.265279 1.22591262,1.265279 H 12.038226 c 0.67936,10e-7 1.226473,-0.564104 1.226473,-1.265279 z" />
    <path
       id="path1674"
       style="fill:#2fc4f5;fill-opacity:1;stroke-width:0.314601;stroke-miterlimit:4;stroke-dasharray:none"
       d="m 0.74407372,3.2176369 c -0.67935955,0 -1.22591262,0.5215617 -1.22591262,1.1691948 V 10.324424 A 7.9214787,4.5452969 0 0 1 -0.3639412,10.204042 7.9214787,4.5452969 0 0 1 -0.06724128,9.9446353 7.9214787,4.5452969 0 0 1 0.2596315,9.6969472 7.9214787,4.5452969 0 0 1 0.61500087,9.4631085 7.9214787,4.5452969 0 0 1 0.99719065,9.2436513 7.9214787,4.5452969 0 0 1 1.4050832,9.0396413 7.9214787,4.5452969 0 0 1 1.8358848,8.852144 7.9214787,4.5452969 0 0 1 2.2884778,8.6822245 7.9214787,4.5452969 0 0 1 2.7600686,8.529883 7.9214787,4.5452969 0 0 1 3.2484222,8.3967173 7.9214787,4.5452969 0 0 1 3.7513034,8.2827274 a 7.9214787,4.5452969 0 0 1 0.5157324,-0.093749 7.9214787,4.5452969 0 0 1 0.5257906,-0.073508 7.9214787,4.5452969 0 0 1 0.533054,-0.052734 7.9214787,4.5452969 0 0 1 0.5380826,-0.03196 7.9214787,4.5452969 0 0 1 0.5403179,-0.010654 7.9214787,4.5452969 0 0 1 0.1804786,0.0016 7.9214787,4.5452969 0 0 1 0.1799197,0.00319 7.9214787,4.5452969 0 0 1 0.1799198,0.00586 7.9214787,4.5452969 0 0 1 0.1799197,0.00853 7.9214787,4.5452969 0 0 1 0.1793608,0.010654 7.9214787,4.5452969 0 0 1 0.1788022,0.012785 7.9214787,4.5452969 0 0 1 0.1788021,0.015447 7.9214787,4.5452969 0 0 1 0.1776849,0.017579 7.9214787,4.5452969 0 0 1 0.1765672,0.019709 7.9214787,4.5452969 0 0 1 0.1765671,0.022372 7.9214787,4.5452969 0 0 1 0.1748909,0.024503 7.9214787,4.5452969 0 0 1 0.1743321,0.026633 7.9214787,4.5452969 0 0 1 0.1732149,0.028765 7.9214787,4.5452969 0 0 1 0.1715381,0.031427 7.9214787,4.5452969 0 0 1 0.1709799,0.033557 7.9214787,4.5452969 0 0 1 0.1687444,0.035689 7.9214787,4.5452969 0 0 1 0.1681859,0.038352 7.9214787,4.5452969 0 0 1 0.1659508,0.039949 7.9214787,4.5452969 0 0 1 0.1648332,0.04208 7.9214787,4.5452969 0 0 1 0.1625982,0.044743 7.9214787,4.5452969 0 0 1 0.1609216,0.046342 7.9214787,4.5452969 0 0 1 0.159246,0.049005 7.9214787,4.5452969 0 0 1 0.15757,0.050603 7.9214787,4.5452969 0 0 1 0.154775,0.052734 7.9214787,4.5452969 0 0 1 0.1531,0.054865 7.9214787,4.5452969 0 0 1 0.150863,0.056461 7.9214787,4.5452969 0 0 1 0.148629,0.058593 7.9214787,4.5452969 0 0 1 0.145837,0.060723 7.9214787,4.5452969 0 0 1 0.143599,0.062854 7.9214787,4.5452969 0 0 1 0.141365,0.06392 7.9214787,4.5452969 0 0 1 0.138574,0.066583 7.9214787,4.5452969 0 0 1 0.135778,0.067648 7.9214787,4.5452969 0 0 1 0.133542,0.069778 7.9214787,4.5452969 0 0 1 0.13019,0.071909 7.9214787,4.5452969 0 0 1 0.127396,0.072975 7.9214787,4.5452969 0 0 1 0.124604,0.074572 7.9214787,4.5452969 0 0 1 0.121808,0.076703 7.9214787,4.5452969 0 0 1 0.118456,0.077769 7.9214787,4.5452969 0 0 1 0.115105,0.079368 7.9214787,4.5452969 0 0 1 0.112311,0.081497 7.9214787,4.5452969 0 0 1 0.10896,0.082031 7.9214787,4.5452969 0 0 1 0.105595,0.08416 7.9214787,4.5452969 0 0 1 0.102251,0.085226 7.9214787,4.5452969 0 0 1 0.09891,0.08629 7.9214787,4.5452969 0 0 1 0.09555,0.08789 7.9214787,4.5452969 0 0 1 0.09221,0.08896 V 4.3868317 c 0,-0.6476331 -0.547113,-1.1691948 -1.226473,-1.1691948 z" />
    <path
       id="path1674-3"
       style="fill:#2fc4f5;fill-opacity:1;stroke-width:0.314601;stroke-miterlimit:4;stroke-dasharray:none"
       d="m 0.74960748,-0.77465064 c -0.6793595,0 -1.2259126,0.5215617 -1.2259126,1.1691948 V 6.3321368 A 7.9214787,4.5452969 0 0 1 -0.35840742,6.2117547 7.9214787,4.5452969 0 0 1 -0.06170752,5.9523478 7.9214787,4.5452969 0 0 1 0.26516528,5.7046597 7.9214787,4.5452969 0 0 1 0.62053468,5.470821 7.9214787,4.5452969 0 0 1 1.0027245,5.2513638 7.9214787,4.5452969 0 0 1 1.410617,5.0473538 7.9214787,4.5452969 0 0 1 1.8414186,4.8598565 7.9214787,4.5452969 0 0 1 2.2940116,4.689937 7.9214787,4.5452969 0 0 1 2.7656024,4.5375955 7.9214787,4.5452969 0 0 1 3.253956,4.4044298 7.9214787,4.5452969 0 0 1 3.7568376,4.2904399 a 7.9214787,4.5452969 0 0 1 0.515732,-0.093749 7.9214787,4.5452969 0 0 1 0.525791,-0.073508 7.9214787,4.5452969 0 0 1 0.533054,-0.052734 7.9214787,4.5452969 0 0 1 0.538082,-0.03196 7.9214787,4.5452969 0 0 1 0.540318,-0.010654 7.9214787,4.5452969 0 0 1 0.180479,0.0016 7.9214787,4.5452969 0 0 1 0.179919,0.00319 7.9214787,4.5452969 0 0 1 0.17992,0.00586 7.9214787,4.5452969 0 0 1 0.17992,0.00853 7.9214787,4.5452969 0 0 1 0.179361,0.010654 7.9214787,4.5452969 0 0 1 0.178802,0.012785 7.9214787,4.5452969 0 0 1 0.178802,0.015447 7.9214787,4.5452969 0 0 1 0.177685,0.017579 7.9214787,4.5452969 0 0 1 0.176567,0.019709 7.9214787,4.5452969 0 0 1 0.176567,0.022372 7.9214787,4.5452969 0 0 1 0.174891,0.024503 7.9214787,4.5452969 0 0 1 0.174332,0.026633 7.9214787,4.5452969 0 0 1 0.173215,0.028765 7.9214787,4.5452969 0 0 1 0.171538,0.031427 7.9214787,4.5452969 0 0 1 0.17098,0.033557 7.9214787,4.5452969 0 0 1 0.168745,0.035689 7.9214787,4.5452969 0 0 1 0.168185,0.038352 7.9214787,4.5452969 0 0 1 0.165951,0.039949 7.9214787,4.5452969 0 0 1 0.164833,0.04208 7.9214787,4.5452969 0 0 1 0.162599,0.044743 7.9214787,4.5452969 0 0 1 0.1609214,0.046342 7.9214787,4.5452969 0 0 1 0.159246,0.049005 7.9214787,4.5452969 0 0 1 0.15757,0.050603 7.9214787,4.5452969 0 0 1 0.154775,0.052734 7.9214787,4.5452969 0 0 1 0.1531,0.054865 7.9214787,4.5452969 0 0 1 0.150863,0.056461 7.9214787,4.5452969 0 0 1 0.148629,0.058593 7.9214787,4.5452969 0 0 1 0.145837,0.060723 7.9214787,4.5452969 0 0 1 0.143599,0.062854 7.9214787,4.5452969 0 0 1 0.141365,0.06392 7.9214787,4.5452969 0 0 1 0.138574,0.066583 7.9214787,4.5452969 0 0 1 0.135778,0.067648 7.9214787,4.5452969 0 0 1 0.133542,0.069778 7.9214787,4.5452969 0 0 1 0.13019,0.071909 7.9214787,4.5452969 0 0 1 0.127396,0.072975 7.9214787,4.5452969 0 0 1 0.124604,0.074572 7.9214787,4.5452969 0 0 1 0.121808,0.076703 7.9214787,4.5452969 0 0 1 0.118456,0.077769 7.9214787,4.5452969 0 0 1 0.115105,0.079368 7.9214787,4.5452969 0 0 1 0.112311,0.081497 7.9214787,4.5452969 0 0 1 0.10896,0.082031 7.9214787,4.5452969 0 0 1 0.105595,0.08416 7.9214787,4.5452969 0 0 1 0.102251,0.085226 7.9214787,4.5452969 0 0 1 0.09891,0.086292 7.9214787,4.5452969 0 0 1 0.09555,0.087889 7.9214787,4.5452969 0 0 1 0.09221,0.088955 V 0.39454416 c 0,-0.6476331 -0.547113,-1.1691948 -1.226473,-1.1691948 z" />
    <ellipse
       style="fill:#ffc107;fill-opacity:1;fill-rule:evenodd;stroke-width:0.385807;stroke-miterlimit:4;stroke-dasharray:none"
       id="path853"
       cx="3.835588"
       cy="3.8212976"
       rx="2.9416728"
       ry="2.8874013" />
    <path
       id="path5542-3"
       style="fill:#304ffe;stroke-width:0.298"
       d="m 9.0372931,7.8527283 c 0,0.2783648 -0.2315487,0.4958811 -0.510351,0.4968478 C 8.2481398,8.3505428 8.0376706,8.1255713 8.0191352,7.8478243 7.9877406,7.377386 8.5618157,6.2775375 8.5618157,6.2775375 c 0,0 0.5203243,1.1255172 0.4754774,1.5751908" />
    <path
       id="path5542-6"
       style="fill:#304ffe;stroke-width:0.298"
       d="m 11.057638,7.2618457 c 0,0.2783648 -0.231549,0.4958809 -0.510351,0.4968479 -0.278803,9.67e-4 -0.489272,-0.2240049 -0.507808,-0.5017519 -0.03139,-0.4704383 0.542681,-1.5702868 0.542681,-1.5702868 0,0 0.520324,1.1255172 0.475478,1.5751908" />
    <path
       id="rect2804"
       style="fill-opacity:0.15;stroke-width:0.396891"
       d="m 5.7897032,4.6910117 5.6002378,-3.1496284 2.155827,1.007906 -6.21e-4,8.2068867 z" />
    <path
       id="path2465"
       style="fill:#ffffff;fill-opacity:1;stroke-width:0.348099;stroke-miterlimit:4;stroke-dasharray:none"
       d="M 8.3205434,1.0816116 A 1.7193854,1.426656 0 0 0 6.6121207,2.3586605 1.4587711,1.3132849 0 0 0 5.220991,3.6696527 1.4587711,1.3132849 0 0 0 6.6798167,4.9828707 1.4587711,1.3132849 0 0 0 6.8482819,4.973412 1.5231495,1.3987762 0 0 0 8.2771354,5.889326 1.5231495,1.3987762 0 0 0 9.5426911,5.2683296 1.5556603,1.2885731 0 0 0 10.106998,5.3568048 1.5556603,1.2885731 0 0 0 11.662976,4.0686272 1.5556603,1.2885731 0 0 0 11.418029,3.3752924 1.5814259,1.2204645 0 0 0 11.989571,2.4371206 1.5814259,1.2204645 0 0 0 10.408271,1.2162729 1.5814259,1.2204645 0 0 0 9.4755118,1.4516505 1.7193854,1.426656 0 0 0 8.3205434,1.0816124 Z" />
    <path
       id="path5542"
       style="fill:#304ffe;stroke-width:0.298"
       d="m 7.036565,7.1180469 c 0,0.2783648 -0.2315487,0.4958811 -0.510351,0.4968478 C 6.2474117,7.6158614 6.0369425,7.3908899 6.0184071,7.1131429 5.9870125,6.6427046 6.5610876,5.5428561 6.5610876,5.5428561 c 0,0 0.5203243,1.1255172 0.4754774,1.5751908" />
  </g>
</svg>
