<?xml version="1.0" encoding="UTF-8" standalone="no"?>
<!-- Created with Inkscape (http://www.inkscape.org/) -->

<svg
   width="48"
   height="48"
   viewBox="0 0 12.7 12.7"
   version="1.1"
   id="svg5"
   inkscape:version="1.1.2 (0a00cf5339, 2022-02-04)"
   sodipodi:docname="weather-inkscape.svg"
   xmlns:inkscape="http://www.inkscape.org/namespaces/inkscape"
   xmlns:sodipodi="http://sodipodi.sourceforge.net/DTD/sodipodi-0.dtd"
   xmlns="http://www.w3.org/2000/svg"
   xmlns:svg="http://www.w3.org/2000/svg">
  <sodipodi:namedview
     id="namedview7"
     pagecolor="#ffffff"
     bordercolor="#666666"
     borderopacity="1.0"
     inkscape:pageshadow="2"
     inkscape:pageopacity="0.0"
     inkscape:pagecheckerboard="true"
     inkscape:document-units="mm"
     showgrid="false"
     units="px"
     inkscape:zoom="11.313709"
     inkscape:cx="24.969708"
     inkscape:cy="30.538174"
     inkscape:window-width="1280"
     inkscape:window-height="1376"
     inkscape:window-x="0"
     inkscape:window-y="27"
     inkscape:window-maximized="0"
     inkscape:current-layer="layer1" />
  <defs
     id="defs2" />
  <g
     inkscape:label="Layer 1"
     inkscape:groupmode="layer"
     id="layer1">
    <path
       id="rect1263"
       style="fill:#239550;fill-opacity:1;stroke-width:0.291385;stroke-miterlimit:4;stroke-dasharray:none"
       d="m 12.558052,8.9440794 a 7.1616883,4.3128658 0 0 0 -0.08336,-0.084405 7.1616883,4.3128658 0 0 0 -0.08638,-0.083395 7.1616883,4.3128658 0 0 0 -0.08941,-0.081879 7.1616883,4.3128658 0 0 0 -0.09244,-0.080868 7.1616883,4.3128658 0 0 0 -0.09547,-0.079856 7.1616883,4.3128658 0 0 0 -0.09851,-0.077836 7.1616883,4.3128658 0 0 0 -0.101538,-0.07733 A 7.1616883,4.3128658 0 0 0 11.80688,8.3032024 7.1616883,4.3128658 0 0 0 11.699785,8.2294104 7.1616883,4.3128658 0 0 0 11.58966,8.1566294 7.1616883,4.3128658 0 0 0 11.477012,8.0858714 7.1616883,4.3128658 0 0 0 11.361835,8.0166284 7.1616883,4.3128658 0 0 0 11.244132,7.9483964 7.1616883,4.3128658 0 0 0 11.123398,7.8821864 7.1616883,4.3128658 0 0 0 11.000644,7.8179974 7.1616883,4.3128658 0 0 0 10.875362,7.7548194 7.1616883,4.3128658 0 0 0 10.747556,7.6941684 7.1616883,4.3128658 0 0 0 10.617729,7.6345284 7.1616883,4.3128658 0 0 0 10.48587,7.5769069 7.1616883,4.3128658 0 0 0 10.351497,7.5213102 7.1616883,4.3128658 0 0 0 10.215103,7.4677353 7.1616883,4.3128658 0 0 0 10.076688,7.4156765 7.1616883,4.3128658 0 0 0 9.9367579,7.3656397 7.1616883,4.3128658 0 0 0 9.7943015,7.3176243 7.1616883,4.3128658 0 0 0 9.6503299,7.2711252 7.1616883,4.3128658 0 0 0 9.5048427,7.2271535 7.1616883,4.3128658 0 0 0 9.3578402,7.1846977 7.1616883,4.3128658 0 0 0 9.208817,7.1447691 7.1616883,4.3128658 0 0 0 9.0587834,7.1068624 7.1616883,4.3128658 0 0 0 8.9067291,7.0704719 7.1616883,4.3128658 0 0 0 8.7541698,7.0366083 7.1616883,4.3128658 0 0 0 8.5995896,7.0047668 7.1616883,4.3128658 0 0 0 8.4445045,6.9749466 7.1616883,4.3128658 0 0 0 8.2879036,6.9476537 7.1616883,4.3128658 0 0 0 8.1302926,6.9223825 7.1616883,4.3128658 0 0 0 7.9721764,6.8991329 7.1616883,4.3128658 0 0 0 7.8125448,6.8779052 7.1616883,4.3128658 0 0 0 7.652913,6.8592047 7.1616883,4.3128658 0 0 0 7.4922709,6.8425254 7.1616883,4.3128658 0 0 0 7.3306186,6.8278682 7.1616883,4.3128658 0 0 0 7.1689663,6.8157381 7.1616883,4.3128658 0 0 0 7.0068088,6.8056295 7.1616883,4.3128658 0 0 0 6.8441462,6.7975427 7.1616883,4.3128658 0 0 0 6.6814835,6.7919831 7.1616883,4.3128658 0 0 0 6.5188207,6.7889506 7.1616883,4.3128658 0 0 0 6.3556529,6.7874344 7.1616883,4.3128658 0 0 0 5.8671597,6.7975427 7.1616883,4.3128658 0 0 0 5.3806873,6.8278682 7.1616883,4.3128658 0 0 0 4.8987613,6.8779052 7.1616883,4.3128658 0 0 0 4.4234021,6.9476537 7.1616883,4.3128658 0 0 0 3.9571363,7.0366083 7.1616883,4.3128658 0 0 0 3.5024889,7.1447691 7.1616883,4.3128658 0 0 0 3.060976,7.2711252 7.1616883,4.3128658 0 0 0 2.6346179,7.4156765 7.1616883,4.3128658 0 0 0 2.2254354,7.5769069 7.1616883,4.3128658 0 0 0 1.8359543,7.7548162 7.1616883,4.3128658 0 0 0 1.4671848,7.9483938 7.1616883,4.3128658 0 0 0 1.1216529,8.1566287 7.1616883,4.3128658 0 0 0 0.80036885,8.3785097 7.1616883,4.3128658 0 0 0 0.50484816,8.6135319 7.1616883,4.3128658 0 0 0 0.23660627,8.8596736 7.1616883,4.3128658 0 0 0 0.13001676,8.9738997 V 11.45907 c 0,0.614516 0.49413031,1.108901 1.10832894,1.108901 H 11.449217 c 0.614199,10e-7 1.108835,-0.494385 1.108835,-1.108901 z" />
    <path
       id="path1674"
       style="fill:#2fc4f5;fill-opacity:1;stroke-width:0.291385;stroke-miterlimit:4;stroke-dasharray:none"
       d="m 1.2383457,2.2305294 c -0.61419863,0 -1.10832894,0.4948908 -1.10832894,1.1094061 V 8.9738997 A 7.1616883,4.3128658 0 0 1 0.23660627,8.8596736 7.1616883,4.3128658 0 0 1 0.50484816,8.6135319 7.1616883,4.3128658 0 0 1 0.80036885,8.3785097 7.1616883,4.3128658 0 0 1 1.1216529,8.1566287 7.1616883,4.3128658 0 0 1 1.4671848,7.9483938 7.1616883,4.3128658 0 0 1 1.8359543,7.7548162 7.1616883,4.3128658 0 0 1 2.2254354,7.5769069 7.1616883,4.3128658 0 0 1 2.6346179,7.4156765 7.1616883,4.3128658 0 0 1 3.060976,7.2711252 7.1616883,4.3128658 0 0 1 3.5024889,7.1447691 7.1616883,4.3128658 0 0 1 3.9571363,7.0366083 a 7.1616883,4.3128658 0 0 1 0.4662658,-0.088955 7.1616883,4.3128658 0 0 1 0.4753592,-0.069749 7.1616883,4.3128658 0 0 1 0.481926,-0.050037 7.1616883,4.3128658 0 0 1 0.4864724,-0.030326 7.1616883,4.3128658 0 0 1 0.4884932,-0.010109 7.1616883,4.3128658 0 0 1 0.1631678,0.00152 7.1616883,4.3128658 0 0 1 0.1626628,0.00303 7.1616883,4.3128658 0 0 1 0.1626627,0.00556 7.1616883,4.3128658 0 0 1 0.1626626,0.00809 7.1616883,4.3128658 0 0 1 0.1621575,0.010109 7.1616883,4.3128658 0 0 1 0.1616523,0.012131 7.1616883,4.3128658 0 0 1 0.1616523,0.014657 7.1616883,4.3128658 0 0 1 0.1606421,0.01668 7.1616883,4.3128658 0 0 1 0.1596318,0.018701 7.1616883,4.3128658 0 0 1 0.1596316,0.021228 7.1616883,4.3128658 0 0 1 0.1581162,0.02325 7.1616883,4.3128658 0 0 1 0.157611,0.025271 7.1616883,4.3128658 0 0 1 0.1566009,0.027294 7.1616883,4.3128658 0 0 1 0.1550851,0.02982 7.1616883,4.3128658 0 0 1 0.1545802,0.031841 7.1616883,4.3128658 0 0 1 0.1525593,0.033864 7.1616883,4.3128658 0 0 1 0.1520543,0.036391 7.1616883,4.3128658 0 0 1 0.1500336,0.037906 7.1616883,4.3128658 0 0 1 0.1490232,0.039928 7.1616883,4.3128658 0 0 1 0.1470025,0.042455 7.1616883,4.3128658 0 0 1 0.1454872,0.043972 7.1616883,4.3128658 0 0 1 0.1439716,0.046499 7.1616883,4.3128658 0 0 1 0.1424564,0.048015 7.1616883,4.3128658 0 0 1 0.1399301,0.050037 7.1616883,4.3128658 0 0 1 0.138415,0.052059 7.1616883,4.3128658 0 0 1 0.136394,0.053574 7.1616883,4.3128658 0 0 1 0.134373,0.055597 7.1616883,4.3128658 0 0 1 0.131848,0.057618 7.1616883,4.3128658 0 0 1 0.129827,0.05964 7.1616883,4.3128658 0 0 1 0.127806,0.060651 7.1616883,4.3128658 0 0 1 0.125282,0.063178 7.1616883,4.3128658 0 0 1 0.122754,0.064189 7.1616883,4.3128658 0 0 1 0.120734,0.06621 7.1616883,4.3128658 0 0 1 0.117703,0.068232 7.1616883,4.3128658 0 0 1 0.115177,0.069243 7.1616883,4.3128658 0 0 1 0.112652,0.070759 7.1616883,4.3128658 0 0 1 0.110125,0.072781 7.1616883,4.3128658 0 0 1 0.107095,0.073792 7.1616883,4.3128658 0 0 1 0.104064,0.075309 7.1616883,4.3128658 0 0 1 0.101538,0.07733 7.1616883,4.3128658 0 0 1 0.09851,0.077836 7.1616883,4.3128658 0 0 1 0.09547,0.079856 7.1616883,4.3128658 0 0 1 0.09244,0.080868 7.1616883,4.3128658 0 0 1 0.08942,0.081879 7.1616883,4.3128658 0 0 1 0.08638,0.083395 7.1616883,4.3128658 0 0 1 0.08336,0.084406 V 3.3399355 c 0,-0.6145153 -0.494636,-1.1094061 -1.108835,-1.1094061 z" />
    <ellipse
       style="fill:#ffc107;fill-opacity:1;fill-rule:evenodd;stroke-width:0.385807;stroke-miterlimit:4;stroke-dasharray:none"
       id="path853"
       cx="3.835588"
       cy="3.2921309"
       rx="2.9416728"
       ry="2.8874013" />
    <path
       id="path5542-3"
       style="fill:#304ffe;stroke-width:0.298"
       d="m 9.0372931,7.3235616 c 0,0.2783648 -0.2315487,0.4958811 -0.510351,0.4968478 C 8.2481398,7.8213761 8.0376706,7.5964046 8.0191352,7.3186576 7.9877406,6.8482193 8.5618157,5.7483708 8.5618157,5.7483708 c 0,0 0.5203243,1.1255172 0.4754774,1.5751908"
       sodipodi:nodetypes="csscc" />
    <path
       id="path5542-6"
       style="fill:#304ffe;stroke-width:0.298"
       d="m 11.057638,6.2035123 c 0,0.2783648 -0.231549,0.4958809 -0.510351,0.4968479 -0.278803,9.67e-4 -0.489272,-0.2240049 -0.507808,-0.5017519 -0.03139,-0.4704383 0.542681,-1.5702868 0.542681,-1.5702868 0,0 0.520324,1.1255172 0.475478,1.5751908"
       sodipodi:nodetypes="csscc" />
    <path
       id="rect2804"
       style="fill-opacity:0.15;stroke-width:0.376491"
       d="m 5.5801748,4.1128028 5.9599772,-2.7452707 1.019254,0.6035483 -5.58e-4,8.2068866 z"
       sodipodi:nodetypes="ccccc" />
    <path
       id="path2465"
       style="fill:#ffffff;fill-opacity:1;stroke-width:0.348099;stroke-miterlimit:4;stroke-dasharray:none"
       d="M 8.3205434,0.55244491 A 1.7193854,1.426656 0 0 0 6.6121207,1.8294938 1.4587711,1.3132849 0 0 0 5.220991,3.140486 1.4587711,1.3132849 0 0 0 6.6798167,4.453704 1.4587711,1.3132849 0 0 0 6.8482819,4.4442453 1.5231495,1.3987762 0 0 0 8.2771354,5.3601593 1.5231495,1.3987762 0 0 0 9.5426911,4.7391629 1.5556603,1.2885731 0 0 0 10.106998,4.8276381 1.5556603,1.2885731 0 0 0 11.662976,3.5394605 1.5556603,1.2885731 0 0 0 11.418029,2.8461257 1.5814259,1.2204645 0 0 0 11.989571,1.9079539 1.5814259,1.2204645 0 0 0 10.408271,0.68710622 1.5814259,1.2204645 0 0 0 9.4755118,0.92248385 1.7193854,1.426656 0 0 0 8.3205434,0.55244576 Z" />
    <path
       id="path5542"
       style="fill:#304ffe;stroke-width:0.298"
       d="m 7.036565,6.5888802 c 0,0.2783648 -0.2315487,0.4958811 -0.510351,0.4968478 C 6.2474117,7.0866947 6.0369425,6.8617232 6.0184071,6.5839762 5.9870125,6.1135379 6.5610876,5.0136894 6.5610876,5.0136894 c 0,0 0.5203243,1.1255172 0.4754774,1.5751908"
       sodipodi:nodetypes="csscc" />
  </g>
</svg>
